REM DIRINDEX 1\2\4\18,1\2\4\19,1\2\5\20,1\2\5\21,1\2\6\22,1\2\6\23,1\2\7\24,1\2\7\25,1\2\8\26,1\2\8\27,1\2\9\28,1\2\9\29,1\2\10\30,1\3\11\31,1\3\11\32,1\3\11\33,1\3\11\34,1\3\11\35,1\3\12\36,1\3\12\37,1\3\12\38,1\3\12\39,1\3\12\40,1\3\13\41,1\3\13\42,1\3\13\43,1\3\13\44,1\3\13\45,1\3\14\46,1\3\14\47,1\3\14\48,1\3\14\49,1\3\15\50,1\3\15\51,1\3\15\52,1\3\15\53,1\3\15\54,1\3\16\55,1\3\16\56,1\3\16\57,1\3\16\58,1\3\16\59,1\3\17\60,1\3\17\61
REM DIRNAME "folder01","folder02","folder03","folder04","folder05","folder06","folder07","folder08","folder09","folder10","folder11","folder12","folder13","folder14","folder15","folder16","folder17","folder18","folder19","folder20","folder21","folder22","folder23","folder24","folder25","folder26","folder27","folder28","folder29","folder30","folder31","folder32","folder33","folder34","folder35","folder36","folder37","folder38","folder39","folder40","folder41","folder42","folder43","folder44","folder45","folder46","folder47","folder48","folder49","folder50","folder51","folder52","folder53","folder54","folder55","folder56","folder57","folder58","folder59","folder60","folder61"
TITLE ""
FILE "TOEIC LR Kinnojyukugo_11.mp3" MP3
  TRACK 01 AUDIO
    TITLE "0:"
    INDEX 01 00:00:00
  TRACK 02 AUDIO
    TITLE "26:cjc160_1431"
    INDEX 01 00:00:12
  TRACK 03 AUDIO
    TITLE "0:"
    INDEX 01 00:01:39
  TRACK 04 AUDIO
    TITLE "27:cjc160_1432"
    INDEX 01 00:02:05
  TRACK 05 AUDIO
    TITLE "0:"
    INDEX 01 00:04:30
  TRACK 06 AUDIO
    TITLE "26:cjc160_1433"
    INDEX 01 00:05:29
  TRACK 07 AUDIO
    TITLE "0:"
    INDEX 01 00:06:40
  TRACK 08 AUDIO
    TITLE "27:cjc160_1434"
    INDEX 01 00:07:03
  TRACK 09 AUDIO
    TITLE "0:"
    INDEX 01 00:08:57
  TRACK 10 AUDIO
    TITLE "26:cjc160_1435"
    INDEX 01 00:09:58
  TRACK 11 AUDIO
    TITLE "0:"
    INDEX 01 00:11:18
  TRACK 12 AUDIO
    TITLE "27:cjc160_1436"
    INDEX 01 00:11:55
  TRACK 13 AUDIO
    TITLE "0:"
    INDEX 01 00:13:64
  TRACK 14 AUDIO
    TITLE "26:cjc160_1437"
    INDEX 01 00:14:63
  TRACK 15 AUDIO
    TITLE "0:"
    INDEX 01 00:16:09
  TRACK 16 AUDIO
    TITLE "27:cjc160_1438"
    INDEX 01 00:16:49
  TRACK 17 AUDIO
    TITLE "0:"
    INDEX 01 00:19:53
  TRACK 18 AUDIO
    TITLE "26:cjc160_1439"
    INDEX 01 00:20:52
  TRACK 19 AUDIO
    TITLE "0:"
    INDEX 01 00:21:65
  TRACK 20 AUDIO
    TITLE "27:cjc160_1440"
    INDEX 01 00:22:33
  TRACK 21 AUDIO
    TITLE "0:"
    INDEX 01 00:24:44
  TRACK 22 AUDIO
    TITLE "26:cjc160_1441"
    INDEX 01 00:25:46
  TRACK 23 AUDIO
    TITLE "0:"
    INDEX 01 00:27:03
  TRACK 24 AUDIO
    TITLE "27:cjc160_1442"
    INDEX 01 00:27:40
  TRACK 25 AUDIO
    TITLE "0:"
    INDEX 01 00:29:18
  TRACK 26 AUDIO
    TITLE "26:cjc160_1443"
    INDEX 01 00:30:17
  TRACK 27 AUDIO
    TITLE "0:"
    INDEX 01 00:31:58
  TRACK 28 AUDIO
    TITLE "27:cjc160_1444"
    INDEX 01 00:32:20
  TRACK 29 AUDIO
    TITLE "0:"
    INDEX 01 00:34:11
  TRACK 30 AUDIO
    TITLE "26:cjc160_1445"
    INDEX 01 00:35:13
  TRACK 31 AUDIO
    TITLE "0:"
    INDEX 01 00:36:45
  TRACK 32 AUDIO
    TITLE "27:cjc160_1446"
    INDEX 01 00:37:08
  TRACK 33 AUDIO
    TITLE "0:"
    INDEX 01 00:39:38
  TRACK 34 AUDIO
    TITLE "26:cjc160_1447"
    INDEX 01 00:40:39
  TRACK 35 AUDIO
    TITLE "0:"
    INDEX 01 00:41:58
  TRACK 36 AUDIO
    TITLE "27:cjc160_1448"
    INDEX 01 00:42:24
  TRACK 37 AUDIO
    TITLE "0:"
    INDEX 01 00:44:15
  TRACK 38 AUDIO
    TITLE "26:cjc160_1449"
    INDEX 01 00:45:15
  TRACK 39 AUDIO
    TITLE "0:"
    INDEX 01 00:46:36
  TRACK 40 AUDIO
    TITLE "27:cjc160_1450"
    INDEX 01 00:46:73
  TRACK 41 AUDIO
    TITLE "0:"
    INDEX 01 00:49:13
  TRACK 42 AUDIO
    TITLE "26:cjc160_1451"
    INDEX 01 00:50:12
  TRACK 43 AUDIO
    TITLE "0:"
    INDEX 01 00:51:53
  TRACK 44 AUDIO
    TITLE "27:cjc160_1452"
    INDEX 01 00:52:17
  TRACK 45 AUDIO
    TITLE "0:"
    INDEX 01 00:54:08
  TRACK 46 AUDIO
    TITLE "26:cjc160_1453"
    INDEX 01 00:55:07
  TRACK 47 AUDIO
    TITLE "0:"
    INDEX 01 00:56:36
  TRACK 48 AUDIO
    TITLE "27:cjc160_1454"
    INDEX 01 00:57:02
  TRACK 49 AUDIO
    TITLE "0:"
    INDEX 01 00:59:29
  TRACK 50 AUDIO
    TITLE "26:cjc160_1455"
    INDEX 01 01:00:30
  TRACK 51 AUDIO
    TITLE "0:"
    INDEX 01 01:01:41
  TRACK 52 AUDIO
    TITLE "27:cjc160_1456"
    INDEX 01 01:02:06
  TRACK 53 AUDIO
    TITLE "0:"
    INDEX 01 01:04:20
  TRACK 54 AUDIO
    TITLE "26:cjc160_1457"
    INDEX 01 01:05:27
  TRACK 55 AUDIO
    TITLE "0:"
    INDEX 01 01:06:46
  TRACK 56 AUDIO
    TITLE "27:cjc160_1458"
    INDEX 01 01:07:07
  TRACK 57 AUDIO
    TITLE "0:"
    INDEX 01 01:09:21
  TRACK 58 AUDIO
    TITLE "26:cjc160_1459"
    INDEX 01 01:10:21
  TRACK 59 AUDIO
    TITLE "0:"
    INDEX 01 01:11:38
  TRACK 60 AUDIO
    TITLE "27:cjc160_1460"
    INDEX 01 01:12:00
  TRACK 61 AUDIO
    TITLE "0:"
    INDEX 01 01:14:15
  TRACK 62 AUDIO
    TITLE "26:cjc160_1461"
    INDEX 01 01:15:22
  TRACK 63 AUDIO
    TITLE "0:"
    INDEX 01 01:16:39
  TRACK 64 AUDIO
    TITLE "27:cjc160_1462"
    INDEX 01 01:17:01
  TRACK 65 AUDIO
    TITLE "0:"
    INDEX 01 01:20:72
  TRACK 66 AUDIO
    TITLE "26:cjc160_1463"
    INDEX 01 01:21:73
  TRACK 67 AUDIO
    TITLE "0:"
    INDEX 01 01:23:06
  TRACK 68 AUDIO
    TITLE "27:cjc160_1464"
    INDEX 01 01:23:43
  TRACK 69 AUDIO
    TITLE "0:"
    INDEX 01 01:25:58
  TRACK 70 AUDIO
    TITLE "26:cjc160_1465"
    INDEX 01 01:26:55
  TRACK 71 AUDIO
    TITLE "0:"
    INDEX 01 01:28:07
  TRACK 72 AUDIO
    TITLE "27:cjc160_1466"
    INDEX 01 01:28:46
  TRACK 73 AUDIO
    TITLE "0:"
    INDEX 01 01:32:01
  TRACK 74 AUDIO
    TITLE "26:cjc160_1467"
    INDEX 01 01:33:06
  TRACK 75 AUDIO
    TITLE "0:"
    INDEX 01 01:34:11
  TRACK 76 AUDIO
    TITLE "27:cjc160_1468"
    INDEX 01 01:34:51
  TRACK 77 AUDIO
    TITLE "0:"
    INDEX 01 01:38:03
  TRACK 78 AUDIO
    TITLE "26:cjc160_1469"
    INDEX 01 01:39:07
  TRACK 79 AUDIO
    TITLE "0:"
    INDEX 01 01:40:53
  TRACK 80 AUDIO
    TITLE "27:cjc160_1470"
    INDEX 01 01:41:06
  TRACK 81 AUDIO
    TITLE "0:"
    INDEX 01 01:44:16
  TRACK 82 AUDIO
    TITLE "26:cjc160_1471"
    INDEX 01 01:45:25
  TRACK 83 AUDIO
    TITLE "0:"
    INDEX 01 01:46:32
  TRACK 84 AUDIO
    TITLE "27:cjc160_1472"
    INDEX 01 01:46:69
  TRACK 85 AUDIO
    TITLE "0:"
    INDEX 01 01:48:41
  TRACK 86 AUDIO
    TITLE "26:cjc160_1473"
    INDEX 01 01:49:50
  TRACK 87 AUDIO
    TITLE "0:"
    INDEX 01 01:50:69
  TRACK 88 AUDIO
    TITLE "27:cjc160_1474"
    INDEX 01 01:51:35
  TRACK 89 AUDIO
    TITLE "0:"
    INDEX 01 01:53:52
